<svg xmlns="http://www.w3.org/2000/svg" viewBox="0 0 1200 800">
  <defs>
    <linearGradient id="bg" x1="0" x2="1" y1="0" y2="1"><stop stop-color="#06100e"/><stop offset="1" stop-color="#11251e"/></linearGradient>
    <radialGradient id="glow" cx="70%" cy="20%" r="55%"><stop stop-color="#4fe7a2" stop-opacity=".7"/><stop offset="1" stop-color="#4fe7a2" stop-opacity="0"/></radialGradient>
    <filter id="blur"><feGaussianBlur stdDeviation="10"/></filter>
  </defs>
  <rect width="1200" height="800" fill="url(#bg)"/>
  <rect width="1200" height="800" fill="url(#glow)"/>
  <g opacity=".18">
    <path d="M0 160h1200M0 320h1200M0 480h1200M0 640h1200M160 0v800M320 0v800M480 0v800M640 0v800M800 0v800M960 0v800" stroke="#fff" stroke-width="2"/>
  </g>
  <g transform="translate(160 280)">
    <path d="M110 210 C160 90 280 50 460 55 L630 65 C720 75 780 125 825 210 Z" fill="#0b111b" stroke="#4fe7a2" stroke-width="8"/>
    <path d="M245 70 L330 15 H545 L640 80" fill="none" stroke="#bfe8ff" stroke-width="10" opacity=".9"/>
    <circle cx="260" cy="225" r="72" fill="#070a10" stroke="#dbe7f7" stroke-width="10"/>
    <circle cx="680" cy="225" r="72" fill="#070a10" stroke="#dbe7f7" stroke-width="10"/>
    <path d="M80 220 H865" stroke="#ffffff" stroke-width="10" opacity=".12"/>
    <path d="M150 146 C260 120 520 126 740 154" stroke="#4fe7a2" stroke-width="8" opacity=".95"/>
    <circle cx="876" cy="197" r="16" fill="#72dcff"/>
  </g>
  <g transform="translate(76 90)">
    <rect x="0" y="0" width="520" height="122" rx="28" fill="#050912" opacity=".72" stroke="#72dcff" stroke-opacity=".28"/>
    <text x="34" y="54" font-family="Arial, Helvetica, sans-serif" font-size="34" font-weight="800" fill="#ffffff">Wheel Detail</text>
    <text x="34" y="92" font-family="Arial, Helvetica, sans-serif" font-size="22" fill="#b6c6d9">Brake dust cleanup and tire dressing</text>
  </g>
  <g transform="translate(850 610)">
    <rect x="0" y="0" width="260" height="58" rx="29" fill="#4fe7a2" opacity=".94"/>
    <text x="130" y="38" text-anchor="middle" font-family="Arial, Helvetica, sans-serif" font-size="20" font-weight="800" fill="#04101b">AUTO ARMOR</text>
  </g>
</svg>